<svg width="56" height="56" viewBox="0 0 56 56" fill="none" xmlns="http://www.w3.org/2000/svg">
<rect width="56" height="56" rx="28" fill="#BDBDBD"/>
<path d="M27.9809 31.3852L24.1009 35.2652C23.6312 35.7186 23.0038 35.972 22.3509 35.972C21.6981 35.972 21.0707 35.7186 20.6009 35.2652C20.3705 35.0357 20.1877 34.763 20.063 34.4627C19.9382 34.1624 19.874 33.8404 19.874 33.5152C19.874 33.19 19.9382 32.868 20.063 32.5677C20.1877 32.2674 20.3705 31.9947 20.6009 31.7652L24.4809 27.8852C24.6692 27.6969 24.775 27.4415 24.775 27.1752C24.775 26.9089 24.6692 26.6535 24.4809 26.4652C24.2926 26.2769 24.0372 26.1711 23.7709 26.1711C23.5046 26.1711 23.2492 26.2769 23.0609 26.4652L19.1809 30.3552C18.3993 31.206 17.9766 32.3259 18.001 33.481C18.0255 34.636 18.4952 35.737 19.3122 36.554C20.1291 37.3709 21.2301 37.8407 22.3852 37.8651C23.5403 37.8896 24.6601 37.4669 25.5109 36.6852L29.4009 32.8052C29.5892 32.6169 29.695 32.3615 29.695 32.0952C29.695 31.8289 29.5892 31.5735 29.4009 31.3852C29.2126 31.1969 28.9572 31.0911 28.6909 31.0911C28.4246 31.0911 28.1692 31.1969 27.9809 31.3852ZM36.5609 19.3052C35.7197 18.4692 34.5819 18 33.3959 18C32.21 18 31.0722 18.4692 30.2309 19.3052L26.3409 23.1852C26.2477 23.2785 26.1737 23.3891 26.1233 23.511C26.0728 23.6328 26.0468 23.7634 26.0468 23.8952C26.0468 24.0271 26.0728 24.1576 26.1233 24.2795C26.1737 24.4013 26.2477 24.512 26.3409 24.6052C26.4342 24.6984 26.5449 24.7724 26.6667 24.8229C26.7885 24.8733 26.9191 24.8993 27.0509 24.8993C27.1828 24.8993 27.3134 24.8733 27.4352 24.8229C27.557 24.7724 27.6677 24.6984 27.7609 24.6052L31.6409 20.7252C32.1107 20.2718 32.7381 20.0185 33.3909 20.0185C34.0438 20.0185 34.6712 20.2718 35.1409 20.7252C35.3713 20.9547 35.5541 21.2274 35.6789 21.5277C35.8036 21.828 35.8678 22.15 35.8678 22.4752C35.8678 22.8004 35.8036 23.1224 35.6789 23.4227C35.5541 23.723 35.3713 23.9957 35.1409 24.2252L31.2609 28.1052C31.1672 28.1982 31.0928 28.3088 31.042 28.4306C30.9913 28.5525 30.9651 28.6832 30.9651 28.8152C30.9651 28.9472 30.9913 29.0779 31.042 29.1998C31.0928 29.3216 31.1672 29.4322 31.2609 29.5252C31.3539 29.6189 31.4645 29.6933 31.5864 29.7441C31.7082 29.7949 31.8389 29.821 31.9709 29.821C32.1029 29.821 32.2336 29.7949 32.3555 29.7441C32.4774 29.6933 32.588 29.6189 32.6809 29.5252L36.5609 25.6352C37.3969 24.794 37.8661 23.6562 37.8661 22.4702C37.8661 21.2842 37.3969 20.1464 36.5609 19.3052ZM24.7009 31.1652C24.7944 31.2579 24.9052 31.3312 25.027 31.381C25.1489 31.4307 25.2793 31.456 25.4109 31.4552C25.5425 31.456 25.673 31.4307 25.7948 31.381C25.9167 31.3312 26.0275 31.2579 26.1209 31.1652L31.0409 26.2452C31.2292 26.0569 31.335 25.8015 31.335 25.5352C31.335 25.2689 31.2292 25.0135 31.0409 24.8252C30.8526 24.6369 30.5972 24.5311 30.3309 24.5311C30.0646 24.5311 29.8092 24.6369 29.6209 24.8252L24.7009 29.7452C24.6072 29.8382 24.5328 29.9488 24.482 30.0706C24.4313 30.1925 24.4051 30.3232 24.4051 30.4552C24.4051 30.5872 24.4313 30.7179 24.482 30.8398C24.5328 30.9616 24.6072 31.0722 24.7009 31.1652Z" fill="#333333"/>
</svg>
