<svg width="32" height="32" viewBox="0 0 32 32" fill="none" xmlns="http://www.w3.org/2000/svg">
<g clip-path="url(#clip0_95_741)">
<path fill-rule="evenodd" clip-rule="evenodd" d="M11.0574 16.9427C10.8074 16.6927 10.667 16.3536 10.667 16.0001C10.667 15.6465 10.8074 15.3074 11.0574 15.0574L18.6 7.51472C18.723 7.38737 18.8702 7.28579 19.0328 7.21592C19.1955 7.14604 19.3705 7.10925 19.5475 7.10772C19.7245 7.10618 19.9001 7.13991 20.064 7.20696C20.2278 7.274 20.3767 7.373 20.5019 7.49819C20.6271 7.62338 20.7261 7.77225 20.7931 7.93611C20.8602 8.09997 20.8939 8.27555 20.8924 8.45259C20.8908 8.62962 20.8541 8.80458 20.7842 8.96726C20.7143 9.12993 20.6127 9.27706 20.4854 9.40005L13.8854 16.0001L20.4854 22.6001C20.7283 22.8515 20.8626 23.1883 20.8596 23.5379C20.8566 23.8875 20.7163 24.2219 20.4691 24.4691C20.2219 24.7164 19.8875 24.8566 19.5379 24.8596C19.1883 24.8627 18.8515 24.7283 18.6 24.4854L11.0574 16.9427Z" fill="#9D9D9D"/>
</g>
<defs>
<clipPath id="clip0_95_741">
<rect width="32" height="32" fill="white"/>
</clipPath>
</defs>
</svg>
