<svg width="24" height="24" viewBox="0 0 24 24" fill="none" xmlns="http://www.w3.org/2000/svg">
<circle cx="12" cy="12" r="9" fill="#E7E7E7"/>
<path d="M15.8733 15.2618C16.0422 15.4306 16.0422 15.7045 15.8733 15.8733C15.7045 16.0422 15.4306 16.0422 15.2618 15.8733L12 12.6116L8.73824 15.8733C8.56936 16.0422 8.29555 16.0422 8.12666 15.8733C7.95778 15.7045 7.95778 15.4306 8.12666 15.2618L11.3884 12L8.12666 8.73824C7.95778 8.56936 7.95778 8.29555 8.12666 8.12666C8.29555 7.95778 8.56936 7.95778 8.73824 8.12666L12 11.3884L15.2618 8.12666C15.4306 7.95778 15.7045 7.95778 15.8733 8.12666C16.0422 8.29555 16.0422 8.56936 15.8733 8.73824L12.6116 12L15.8733 15.2618Z" fill="#808080"/>
</svg>
