<?xml version="1.0" encoding="utf-8"?>
<!-- Generator: Adobe Illustrator 26.3.1, SVG Export Plug-In . SVG Version: 6.00 Build 0)  -->
<svg version="1.1" id="레이어_1" xmlns="http://www.w3.org/2000/svg" xmlns:xlink="http://www.w3.org/1999/xlink" x="0px"
	 y="0px" viewBox="0 0 1080 1080" style="enable-background:new 0 0 1080 1080;" xml:space="preserve">
<g transform="translate(0.000000,1080.000000) scale(0.100000,-0.100000)">
	<path d="M3773.9,6241.2c-57-26-378-382-393-437c-16-56-13-768,2-810c19-50,333-418,373-438c31-14,88-16,482-16l447,1l37,27
		c20,15,66,59,102,98l66,72v78v78l-128,131c-70,71-165,169-210,218l-82,87h-74h-73l-87-105c-48-58-91-105-96-105s-48,47-96,105
		l-87,105h-56c-53,0-60-3-95-39l-38-39l146-171l147-171h78h78l88,100c48,55,90,100,94,100c11,0,276-292,276-304c0-7-12-26-26-43
		l-25-30l-390,5l-389,5l-148,163l-147,162v334l1,333l146,163l146,162h397h398l25-33l26-34l-125-139c-69-76-133-147-143-157
		c-16-16-21-12-111,88l-95,105h-75h-75l-91-108c-50-59-117-137-148-174l-57-67l38-35c35-32,43-35,98-36h60l83,100
		c46,55,88,100,92,100s48-45,97-99l88-100l80,2l79,2l203,225l202,225v64l1,63l-76,84c-123,135-71,124-570,123
		C3852.9,6259.2,3810.9,6257.2,3773.9,6241.2z"/>
	<path d="M5511.8,5717l-52-53v-332v-332h174h174l51,58c49,55,51,59,51,120v62h-85h-85v-50v-50h-60h-60v240v240h60h60v-70v-70h85h85
		v145v145h-173h-173L5511.8,5717z"/>
	<path d="M6026.8,5712l-57-58v-327v-327h80h80v125v125h65h65v-125v-125h80h80v385v385h-168h-168L6026.8,5712z M6259.8,5510v-110h-65
		h-65v110v110h65h65V5510z"/>
	<path d="M6555.8,5719l-56-51v-334v-334h80h80v95v95h140h140v290v290h-164h-164L6555.8,5719z M6779.8,5480v-140h-60h-60v140v140h60
		h60V5480z"/>
	<path d="M7009.8,5607v-154l125-94l125-94v-62v-63h-45h-45v50v50h-80h-80v-120v-120h210h210v160v160l-130,96l-130,96v49v49h55h55
		v-40v-40h70h70v115v115h-205h-205V5607z"/>
</g>
</svg>
