<svg width="24" height="24" viewBox="0 0 24 24" fill="none" xmlns="http://www.w3.org/2000/svg">
<g id="Frame 230">
<path id="Vector" d="M9.02935 11.0001C9.16987 11.1397 9.35996 11.2181 9.5581 11.2181C9.75624 11.2181 9.94633 11.1397 10.0868 11.0001C10.2265 10.8596 10.3049 10.6697 10.3049 10.4716C10.3049 10.2736 10.2265 10.0836 10.0868 9.94312L5.38435 5.22046C5.24312 5.0793 5.05158 5 4.85185 5C4.65212 5 4.46058 5.0793 4.31935 5.22046C4.17812 5.36162 4.09878 5.55307 4.09878 5.7527C4.09878 5.95232 4.17812 6.14378 4.31935 6.28493L9.02935 11.0001ZM18.2543 13.9986C18.0554 13.9986 17.8647 14.0776 17.724 14.2182C17.5834 14.3588 17.5043 14.5494 17.5043 14.7482V17.4394L14.0843 13.9986C13.9411 13.8555 13.7469 13.7751 13.5443 13.7751C13.3418 13.7751 13.1476 13.8555 13.0043 13.9986C12.8611 14.1418 12.7807 14.3359 12.7807 14.5384C12.7807 14.7408 12.8611 14.9349 13.0043 15.0781L16.4468 18.4964H13.7543C13.5554 18.4964 13.3647 18.5754 13.224 18.716C13.0834 18.8565 13.0043 19.0472 13.0043 19.246C13.0043 19.4448 13.0834 19.6355 13.224 19.7761C13.3647 19.9167 13.5554 19.9957 13.7543 19.9957H18.2543C18.3524 19.9945 18.4492 19.9741 18.5393 19.9357C18.7226 19.8596 18.8682 19.7141 18.9443 19.5309C18.9828 19.4408 19.0032 19.344 19.0043 19.246V14.7482C19.0043 14.5494 18.9253 14.3588 18.7847 14.2182C18.644 14.0776 18.4533 13.9986 18.2543 13.9986ZM18.9443 5.46784C18.8682 5.28467 18.7226 5.13911 18.5393 5.06304C18.4492 5.02463 18.3524 5.00425 18.2543 5.00307H13.7543C13.5554 5.00307 13.3647 5.08205 13.224 5.22263C13.0834 5.36321 13.0043 5.55388 13.0043 5.7527C13.0043 5.95151 13.0834 6.14218 13.224 6.28276C13.3647 6.42335 13.5554 6.50233 13.7543 6.50233H16.4468L4.22185 18.7138C4.15155 18.7835 4.09576 18.8664 4.05768 18.9577C4.0196 19.0491 4 19.1471 4 19.246C4 19.345 4.0196 19.443 4.05768 19.5343C4.09576 19.6257 4.15155 19.7086 4.22185 19.7783C4.29157 19.8485 4.37452 19.9043 4.46592 19.9423C4.55731 19.9804 4.65534 20 4.75435 20C4.85336 20 4.95139 19.9804 5.04278 19.9423C5.13418 19.9043 5.21713 19.8485 5.28685 19.7783L17.5043 7.5593V10.2505C17.5043 10.4493 17.5834 10.64 17.724 10.7805C17.8647 10.9211 18.0554 11.0001 18.2543 11.0001C18.4533 11.0001 18.644 10.9211 18.7847 10.7805C18.9253 10.64 19.0043 10.4493 19.0043 10.2505V5.7527C19.0032 5.65474 18.9828 5.55796 18.9443 5.46784Z" fill="#AAC1DF"/>
</g>
</svg>
